<?xml version="1.0" encoding="UTF-8"?>
<!DOCTYPE svg PUBLIC "-//W3C//DTD SVG 1.1//EN" "http://www.w3.org/Graphics/SVG/1.1/DTD/svg11.dtd">
<!-- Creator: CorelDRAW 2018 (64 Bit) -->
<svg xmlns="http://www.w3.org/2000/svg" xml:space="preserve" width="94.0109mm" height="99.6794mm" version="1.1" style="shape-rendering:geometricPrecision; text-rendering:geometricPrecision; image-rendering:optimizeQuality; fill-rule:evenodd; clip-rule:evenodd"
viewBox="0 0 9401.08 9967.93"
 xmlns:xlink="http://www.w3.org/1999/xlink">
 <defs>
  <style type="text/css">
   <![CDATA[
    .fil3 {fill:#070807}
    .fil0 {fill:#131314}
    .fil2 {fill:#141515}
    .fil1 {fill:#151616}
   ]]>
  </style>
 </defs>
 <g id="Camada_x0020_1">
  <metadata id="CorelCorpID_0Corel-Layer"/>
  <g id="_2805647382576">
   <path class="fil0" d="M2081.91 5299.63c133.83,-31.53 18.17,-55.96 99.67,8.58 -341.35,13.5 -439.66,-16.17 -779.41,72.44 -51.53,351.17 -8.94,532.75 49.77,877.56 675.18,104.21 539.92,-235.82 864.56,361.63l180.31 318.59c43.4,65.34 27.72,22.81 77.21,109.81 -159.7,380.83 -684.9,373.39 -277.45,751.21 229.99,213.27 315.7,326.71 592.76,451.78 8.88,-5.59 18.58,-14.97 24.09,-20.26 146.01,-140.28 289.85,-396.59 524.82,-302.61 230.24,92.1 450.78,166.59 689.78,247.07 143.31,233.89 37.97,512.08 160.36,709.2 122.46,63.53 579.34,53.4 735.51,17.81 200.63,-178.44 12.63,-450.84 197.74,-635.42 130.07,-77.32 248.79,-103.2 410.48,-157.85 494.95,-167.26 305.44,-258.61 648.08,12.63 210.78,166.87 219.42,333 679.03,-131.91 155.8,-157.6 219.96,-212.1 343.8,-397.03l-466.55 -486.02c64.09,-201.98 265.37,-374.75 360.71,-783.98 151.63,0 496.1,22.49 621.85,-13.15 207.88,-58.92 191,-231.77 190.3,-480.46 -1.94,-678.77 -113.49,-564.72 -776.87,-564.72l-282.22 -599.73c-115.91,77.62 -270.08,386.83 -366.64,515.3 -141.74,188.58 -365.94,259.61 -312.66,514.31 296.1,1415.49 -1847.52,2373.19 -2911.13,1079.15 -375.83,-457.26 -285.76,-727.35 -358.24,-947.04 -48.24,-146.23 -113.81,-136 -199.88,-258.72 -305.59,-435.76 52.6,-1000.48 574.58,-929.91 475.44,64.27 340.28,-11.35 637.49,-193.18 140.74,-86.11 468.5,-192.46 704.33,-159.98 438.58,60.39 322.56,159 618.24,-140.23 121.67,-123.12 370.46,-302.67 414.47,-467.47 -617,-143.75 -528.81,-357.69 -560.64,-532.98 -29.52,-162.65 -51.13,-312.13 -197.01,-367.43 -98.57,-37.37 -427.25,-27.22 -548.63,-17.82 -412.23,31.93 -226.94,569.15 -401.27,727.63 -24.84,22.58 -324.12,129.75 -397.88,166.56 -145.17,72.44 -235.84,132.6 -364.02,200.42 -34.01,-127.36 -45.5,-90.33 -129.75,-187.74 -52.33,-60.5 -89.65,-111.66 -141.34,-176.16 -303.63,-378.88 -391.84,-368.8 -760.82,2.28 -431.02,433.48 -361.2,341.09 -82.12,699.54 79.01,101.48 199.27,259.67 302.64,297.08l-388.05 811.22z"/>
   <path class="fil0" d="M6668.01 2301.2c31.46,-117.83 49.93,-111.66 139.26,-178.23 313.07,-233.3 1060.18,-559.36 1060.18,142.95 -226.92,0 -1031.23,-30.01 -1199.44,35.28zm-5150.55 -105.83c0,-743.47 1052.69,-114.04 1149.01,15.16 4.42,5.93 10.16,15.18 14.11,21.17 19.39,29.46 15.99,13.31 36.33,69.5l-955.56 3.06c-131.49,1.01 -243.89,27.21 -243.89,-108.89zm987.78 -458.61c430.26,0 730.21,35.28 1164.17,35.28l3351.39 0 -1022.7 70.91c-561.74,-5.27 -1332.36,55.36 -1977.07,36.07l-1020.79 -72.82c-91.45,-2.48 -196.38,7.48 -285.63,3.41 -149.32,-6.8 -121.39,3.62 -209.37,-72.85zm70.56 -458.61c163.15,-243.65 448.74,-627.53 697.4,-784.26 475.1,-299.45 2274.98,-235.3 2721.29,-59.16 215.46,85.04 633.25,589.95 779.36,808.14 -880.48,0 -1999.19,-100.58 -2964.49,-71.71l-1233.56 106.99zm-246.95 -211.67c-158.7,-42.38 -104.97,-141.11 -529.17,-141.11 -722.36,0 -665.61,290.08 -129.72,447.22 167.17,49.02 67.81,-50.71 165,81.95 -911.79,20.31 -705.55,1390.62 -705.55,1869.72 191.33,-15.92 33.64,1.01 135.81,-40.58 556.62,-226.62 674.15,-77.42 1146.47,-335.2 2109.19,-1151.13 3858.18,-188.67 4115.22,-188.67 196.59,0 324.21,-62.25 467.14,-97.51 506.12,-124.88 960.52,56.76 1085.08,591.4l70.55 0c11.05,-132.77 46.02,-174.43 71.77,-316.28 118.99,-655.45 59.85,-1221.53 -597.79,-1486.04 -7.52,-3.02 -18.23,-7.54 -24.96,-10.32l-48.74 -21.8c566,-131.87 636.17,-469.8 279.39,-480.74 -941.88,-28.9 -491.41,43.28 -808.55,127.96 -18.87,-226.71 -450.02,-681.21 -640.77,-805.62 -508.09,-331.36 -1470.59,-252.71 -2181.46,-252.71 -490.13,0 -890.66,53.39 -1193.36,253.02 -298.82,197.06 -508.96,488.95 -676.36,805.31z"/>
   <path class="fil1" d="M3032.76 8827.58c-51.2,-30.24 -31.11,-23.82 -104.19,-23.84 -154.42,-1.19 -255.25,-104.92 -381.73,-190.19 -344.57,-232.3 -181.91,-82.26 -509.17,-412.26l-569.83 -632.37c-33.24,-42.38 -66.98,-88.45 -106.05,-141.11 -403.78,-544.19 -647.38,-1662.13 -549.48,-2336.11 159.39,-1097.23 436.63,-1312.4 460.21,-1470.26 -93.77,27.2 -391.52,79.94 -500.78,58.77 -80.62,-229.55 8.69,-892.19 -27.82,-1216.57l-74.69 112.21c-31.23,38.34 -58.16,79.81 -83.01,131.04 -404.66,834.51 -620.31,1567.17 -514.12,2555.87 73.43,683.76 347.07,1457.51 709.93,2008.3 275.81,418.64 914.03,1109.63 1290.71,1387.09 109.13,80.38 160.11,125.13 271.73,189.39l558.04 353.42c382.85,245.94 1179.15,503.87 1576.29,647.32 314.97,113.77 390.7,-11.12 682.3,-97.55 296.21,-87.8 489.41,-256.49 647.9,-182.32 51.88,-58.03 -16,-17.98 93.6,-35.27 -0.1,-48.95 -55.66,-64.16 166.19,-175.58 410.71,-206.27 311.6,-133.28 720.04,-409.56l524.52 -358.04c38.72,-27.16 32.75,-22.73 62.76,-42.87l209.04 -176.72c330.25,-275.46 780.12,-742.53 988.26,-1129.3 78.96,-146.72 203.24,-286.97 286.2,-452.34 389.31,-776.07 480.32,-1442.6 450.7,-2336.55 -37.42,-1128.92 -757.33,-2047 -760.17,-2055.74 -40.47,387.75 125.58,826.58 -277.51,1403.53 -101.29,144.98 -97.01,71.61 -16.05,264.99 477.82,1141.38 376.17,2229.68 -244.71,3284.32 -101.79,172.89 -438.14,615.37 -573.31,731.46l-1152.75 789.58c-592.01,315.19 -1368.96,608.36 -2022.78,460.94 -575.21,-129.7 -490.75,-108.97 -962.87,-308.57 -406.47,-171.83 -254.26,-62.5 -267.4,-195.11z"/>
   <path class="fil2" d="M7479.4 3077.14c-24.99,-82.2 36.04,-70.38 -35.46,-70.38 -100.43,69.73 -210.54,45.7 -329.22,69.59 -182.62,36.76 -480.48,317.55 -589.22,460.16 -273.97,359.31 -749.2,607.49 -869.41,826.84 -140.48,256.33 -460.62,485.38 -729.37,746.55l-587.05 487.02 -160.2 -100.71c-44.56,-36.19 -38.27,-35.26 -56.2,-49.7 -258.86,-208.41 -629.39,-477.13 -933.52,-379.53 -68.32,154.89 -0.61,325.84 91.01,445.87l373.97 439.27c69.34,73.02 94.65,49.56 165.94,146.77l216 244.88c164.43,183.32 -27.52,86.63 296.37,337.86 200.45,155.49 296.2,223.3 581,-100.46l355.27 -459.49c26.66,-39.72 24.26,-40.43 52.93,-88.01 95.25,-158.08 155.76,-172.86 267.97,-326.75l28.59 -41.67c4.18,-6.07 9.5,-15.07 13.67,-21.12l59.16 -80.36c4.85,-5.69 12.03,-13.19 17.06,-18.8 5.11,-5.69 12.51,-13.03 17.74,-18.66 62.79,-67.55 92.32,-99.54 146.76,-174.62l108.55 -137.37c4.31,-5.74 10.37,-14.24 14.55,-20.1 4.2,-5.88 9.82,-14.67 13.92,-20.67l881.92 -1163.98c4.46,-5.9 10.5,-14.4 14.89,-20.38l476.58 -617.84c265.88,-363.64 -65.09,-216.17 95.8,-294.21z"/>
   <path class="fil3" d="M5808.99 9568.41c-158.49,-74.17 -351.69,94.52 -647.9,182.32 -291.6,86.43 -367.33,211.32 -682.3,97.55 -397.14,-143.45 -1193.44,-401.38 -1576.29,-647.32l-558.04 -353.42c-111.62,-64.26 -162.6,-109.01 -271.73,-189.39 -376.68,-277.46 -1014.9,-968.45 -1290.71,-1387.09 -362.86,-550.79 -636.5,-1324.54 -709.93,-2008.3 -106.19,-988.7 109.46,-1721.36 514.12,-2555.87 24.85,-51.23 51.78,-92.7 83.01,-131.04l74.69 -112.21c36.51,324.38 -52.8,987.02 27.82,1216.57 109.26,21.17 407.01,-31.57 500.78,-58.77 -23.58,157.86 -300.82,373.03 -460.21,1470.26 -97.9,673.98 145.7,1791.92 549.48,2336.11 39.07,52.66 72.81,98.73 106.05,141.11l569.83 632.37c327.26,330 164.6,179.96 509.17,412.26 126.48,85.27 227.31,189 381.73,190.19 -232.35,-256.61 -1264.83,-604.81 -1860.22,-2137.6 -292.84,-753.87 -271.75,-1690.64 30.28,-2490.73 70.15,-185.82 297.27,-521.01 313,-710.05 -125.56,84.08 -196.81,73.71 -434.44,138.12 -241.27,65.39 -135.37,-17.3 -129.19,-277.15 8.77,-369.13 -38.15,-819.3 34.46,-1130.97 -246.46,165.04 -563.94,864.71 -666.3,1168.14 -186.58,553.06 -211.92,926.08 -216.11,1654.55 -4.05,704.17 291.97,1606.96 642.1,2144.84 62.4,95.87 112.85,186.98 179.41,279.2 73.39,101.68 128.23,195.42 210.75,283.14 90.91,96.65 127.09,156.25 211.31,247.31 527.67,570.47 1149.73,1047.15 1849.57,1395.98 220.21,109.76 391.27,191.78 626.37,290.85 191.82,80.83 851.75,359.55 1043.46,300.38 430.06,-132.73 631.15,-232.94 1045.98,-391.34z"/>
   <path class="fil3" d="M3032.76 8827.58c13.14,132.61 -139.07,23.28 267.4,195.11 472.12,199.6 387.66,178.87 962.87,308.57 653.82,147.42 1430.77,-145.75 2022.78,-460.94l1152.75 -789.58c135.17,-116.09 471.52,-558.57 573.31,-731.46 620.88,-1054.64 722.53,-2142.94 244.71,-3284.32 -80.96,-193.38 -85.24,-120.01 16.05,-264.99 403.09,-576.95 237.04,-1015.78 277.51,-1403.53 2.84,8.74 722.75,926.82 760.17,2055.74 29.62,893.95 -61.39,1560.48 -450.7,2336.55 -82.96,165.37 -207.24,305.62 -286.2,452.34 -208.14,386.77 -658.01,853.84 -988.26,1129.3l-209.04 176.72c-30.01,20.14 -24.04,15.71 -62.76,42.87l-524.52 358.04c-408.44,276.28 -309.33,203.29 -720.04,409.56 -221.85,111.42 -166.29,126.63 -166.19,175.58 321.63,-207.54 884.4,-427.97 1338.28,-802.97l599.85 -493.76c66.35,-58.43 112.71,-111.35 177.18,-175.6 319.94,-318.84 719.59,-903.68 919.68,-1302.82 549.41,-1095.95 634.59,-2355.38 124.82,-3605.64 -90.23,-221.31 -389.47,-807.56 -559.95,-921.71 0,523.2 29.89,1077.1 -261.75,1502.14 -52.07,75.89 -76.69,81.81 -126.3,155.91 46.64,200.22 218.25,401.17 333.9,1112.49 187.87,1155.54 -354.61,2453.4 -1221.02,3150.95 -75.4,60.7 -103.05,102.49 -185.61,167.17 -79.27,62.1 -124.66,95.17 -203.89,148.89 -663.5,449.87 -1267.28,712.1 -2089.27,840.44 -423.8,66.17 -1397.88,-317.39 -1715.76,-481.05z"/>
   <path class="fil3" d="M7479.4 3077.14c-160.89,78.04 170.08,-69.43 -95.8,294.21l-476.58 617.84c-4.39,5.98 -10.43,14.48 -14.89,20.38l-881.92 1163.98c-4.1,6 -9.72,14.79 -13.92,20.67 -4.18,5.86 -10.24,14.36 -14.55,20.1l-108.55 137.37c-54.44,75.08 -83.97,107.07 -146.76,174.62 -5.23,5.63 -12.63,12.97 -17.74,18.66 -5.03,5.61 -12.21,13.11 -17.06,18.8l-59.16 80.36c-4.17,6.05 -9.49,15.05 -13.67,21.12l-28.59 41.67c-112.21,153.89 -172.72,168.67 -267.97,326.75 -28.67,47.58 -26.27,48.29 -52.93,88.01l-355.27 459.49c-284.8,323.76 -380.55,255.95 -581,100.46 -323.89,-251.23 -131.94,-154.54 -296.37,-337.86l-216 -244.88c-71.29,-97.21 -96.6,-73.75 -165.94,-146.77l-373.97 -439.27c-91.62,-120.03 -159.33,-290.98 -91.01,-445.87 304.13,-97.6 674.66,171.12 933.52,379.53 17.93,14.44 11.64,13.51 56.2,49.7l160.2 100.71 587.05 -487.02c268.75,-261.17 588.89,-490.22 729.37,-746.55 120.21,-219.35 595.44,-467.53 869.41,-826.84 108.74,-142.61 406.6,-423.4 589.22,-460.16 118.68,-23.89 228.79,0.14 329.22,-69.59 -479.17,-146.3 -685.87,209.79 -925.86,449.79l-1428.72 1393.5c-66.62,67.01 -108.12,115.45 -179.99,172.79 -594.59,474.34 -421.85,639.72 -776.31,342.48 -148.11,-124.19 -550.53,-387.66 -720.48,-413.08 -252.61,-37.79 -375.35,179.85 -321.13,358.83 65.84,217.3 868.9,1038.66 1036.55,1258.75 332.5,436.49 580.27,397.57 877.15,-4.81l967.42 -1255.08c471.71,-636 1036.53,-1303.65 1486.24,-1935.71 65.72,-92.36 116.22,-139.04 126.42,-261.63 -132.99,-92.41 -16.65,-33.25 -105.83,-35.45z"/>
   <path class="fil3" d="M5221.62 8267.02c-185.11,184.58 2.89,456.98 -197.74,635.42 -156.17,35.59 -613.05,45.72 -735.51,-17.81 -122.39,-197.12 -17.05,-475.31 -160.36,-709.2 -239,-80.48 -459.54,-154.97 -689.78,-247.07 -234.97,-93.98 -378.81,162.33 -524.82,302.61 -5.51,5.29 -15.21,14.67 -24.09,20.26 -277.06,-125.07 -362.77,-238.51 -592.76,-451.78 -407.45,-377.82 117.75,-370.38 277.45,-751.21 -49.49,-87 -33.81,-44.47 -77.21,-109.81l-180.31 -318.59c-324.64,-597.45 -189.38,-257.42 -864.56,-361.63 -58.71,-344.81 -101.3,-526.39 -49.77,-877.56 339.75,-88.61 438.06,-58.94 779.41,-72.44 -81.5,-64.54 34.16,-40.11 -99.67,-8.58 -168.11,-84.33 -270.97,-35.1 -635,-35.1 -161.49,241.15 -194.62,530.59 -129.27,834.81 66.37,308.94 405.12,223.52 764.27,223.52 146.57,218.89 245.44,536.17 423.33,740.83 -188.29,281.19 -291.17,279.12 -458.61,529.17 91.25,172.45 408.78,448.49 584.05,580.12 88.56,66.51 143.84,104.8 227.34,160.71 144.45,-96.73 294.89,-278.42 458.61,-388.05 146.42,34.11 261.94,111.3 404.38,160.06l407.01 157.44c0,663.1 5.32,845.04 824.62,718.78 207.7,-32.01 268.99,9.33 268.99,-714.9z"/>
  </g>
 </g>
</svg>
